<?xml version="1.0" encoding="UTF-8"?>
<svg width="938px" height="708px" viewBox="0 0 938 708" version="1.1" xmlns="http://www.w3.org/2000/svg" xmlns:xlink="http://www.w3.org/1999/xlink">
    <!-- Generator: Sketch 53.2 (72643) - https://sketchapp.com -->
    <title>Path</title>
    <desc>Created with Sketch.</desc>
    <g id="Page-1" stroke="none" stroke-width="1" fill="none" fill-rule="evenodd" opacity="0.5">
        <path d="M577.679934,96.9636556 C537.431188,131.152607 485.225302,128.940688 439.47662,111.149545 C393.727938,93.358402 351.703896,61.69487 307.130042,39.1838057 C269.761801,20.3128283 230.548645,7.92085745 190.856855,2.40847689 C134.047383,-5.48128107 70.6066573,4.15014531 31.0279989,59.3958677 C-13.0498164,120.94643 -9.66457059,231.960375 37.9899441,288.425265 C62.2436206,317.162794 93.998793,331.270309 121.68993,353.737831 C149.381067,376.205354 175.027132,413.442225 172.668774,456.757519 C170.484463,496.815892 145.099471,527.617298 118.82683,546.923693 C98.5240574,561.841083 73.5219718,578.134391 71.0765886,609.040297 C68.7095272,638.936036 89.7346016,662.370184 109.811111,675.693948 C175.30561,719.157283 256.01196,718.739283 321.280196,674.596697 C344.550497,658.843306 365.923669,637.891035 390.333989,625.629689 C454.427397,593.408823 525.056331,625.838689 592.926594,637.70816 C650.362642,647.748878 709.2694,642.541289 765.234737,622.485978 C798.843527,610.44234 832.582854,592.00678 856.192551,557.730746 C873.223209,532.999054 883.831473,501.692564 893.787055,470.777949 C904.404021,437.819777 914.611973,404.623577 924.410911,371.189349 C930.285052,351.11662 936.072169,330.660725 937.595095,309.194661 C940.345063,270.285789 928.753424,231.821042 912.967214,198.990592 C875.485841,121.024805 812.358403,66.2057913 743.992102,52.2811522 C675.6258,38.3565132 603.299892,65.5526656 550.275977,125.065476" id="Path" fill="#2496DB"></path>
    </g>
</svg>